<?xml version="1.0" standalone="no"?><!DOCTYPE svg PUBLIC "-//W3C//DTD SVG 1.1//EN" "http://www.w3.org/Graphics/SVG/1.1/DTD/svg11.dtd"><svg width="100%" height="100%" viewBox="0 0 62 62" version="1.1" xmlns="http://www.w3.org/2000/svg" xmlns:xlink="http://www.w3.org/1999/xlink" xml:space="preserve" style="fill-rule:evenodd;clip-rule:evenodd;stroke-linejoin:round;stroke-miterlimit:1.41421;"><path d="M28.238,30.367c0.008,-0.072 0.018,-0.143 0.032,-0.213c0.093,-0.492 -0.064,-0.998 -0.418,-1.353c-1.772,-1.801 -6.557,-6.588 -6.557,-6.588c-1.325,-1.326 -3.353,-1.647 -5.023,-0.795c-1.456,0.84 -3.15,1.256 -4.94,1.256c-6.254,0 -11.332,-5.08 -11.332,-11.337c0,-1.987 0,-6.421 0,-9.117c0,-1.226 0.993,-2.22 2.219,-2.22c2.626,0 6.918,0 9.113,0c6.254,0 11.331,5.08 11.331,11.337c0,1.791 -0.416,3.486 -1.157,4.993c-0.829,1.628 -0.516,3.604 0.775,4.896c2.015,2.124 4.889,5.034 6.493,6.649c0.359,0.36 0.872,0.52 1.372,0.426c0.072,-0.023 0.146,-0.039 0.221,-0.048c-0.006,-1.267 -0.021,-3.036 -0.056,-4.364c0,-0.992 -0.639,-1.871 -1.582,-2.178c-0.863,-0.294 -1.674,-0.784 -2.362,-1.472c-2.402,-2.403 -2.402,-6.303 0,-8.706c0.843,-0.843 2.492,-2.491 3.501,-3.5c0.47,-0.471 1.234,-0.471 1.704,0c1.036,1.035 2.738,2.738 3.501,3.5c2.402,2.403 2.402,6.303 0,8.706c-0.688,0.688 -1.499,1.178 -2.38,1.415c-0.969,0.315 -1.624,1.217 -1.625,2.235c0,0 0,2.715 0.005,4.349c0.072,0.008 0.143,0.018 0.213,0.032c0.492,0.093 0.998,-0.064 1.353,-0.418c1.801,-1.772 6.588,-6.557 6.588,-6.557c1.326,-1.325 1.647,-3.353 0.795,-5.023c-0.84,-1.456 -1.256,-3.15 -1.256,-4.94c0,-6.254 5.08,-11.332 11.337,-11.332c1.987,0 6.421,0 9.117,0c1.226,0 2.22,0.993 2.22,2.219c0,2.626 0,6.918 0,9.113c0,6.254 -5.08,11.331 -11.337,11.331c-1.791,0 -3.486,-0.416 -4.993,-1.157c-1.628,-0.829 -3.604,-0.516 -4.896,0.775c-2.124,2.015 -5.034,4.889 -6.649,6.493c-0.36,0.359 -0.52,0.872 -0.426,1.372c0.023,0.072 0.039,0.146 0.048,0.221c1.267,-0.006 3.036,-0.021 4.364,-0.056c0.992,0 1.871,-0.639 2.178,-1.582c0.294,-0.863 0.784,-1.674 1.472,-2.362c2.403,-2.402 6.303,-2.402 8.706,0c0.843,0.843 2.491,2.492 3.5,3.501c0.471,0.47 0.471,1.234 0,1.704c-1.035,1.036 -2.738,2.738 -3.5,3.501c-2.403,2.402 -6.303,2.402 -8.706,0c-0.688,-0.688 -1.178,-1.499 -1.415,-2.38c-0.315,-0.969 -1.217,-1.624 -2.235,-1.625c0,0 -2.715,0 -4.349,0.005c-0.008,0.072 -0.018,0.143 -0.032,0.213c-0.093,0.492 0.064,0.998 0.418,1.353c1.772,1.801 6.557,6.588 6.557,6.588c1.325,1.326 3.353,1.647 5.023,0.795c1.456,-0.84 3.15,-1.256 4.94,-1.256c6.254,0 11.332,5.08 11.332,11.337c0,1.987 0,6.421 0,9.117c0,1.226 -0.993,2.22 -2.219,2.22c-2.626,0 -6.918,0 -9.113,0c-6.254,0 -11.331,-5.08 -11.331,-11.337c0,-1.791 0.416,-3.486 1.157,-4.993c0.829,-1.628 0.516,-3.604 -0.775,-4.896c-2.015,-2.124 -4.889,-5.034 -6.493,-6.649c-0.359,-0.36 -0.872,-0.52 -1.372,-0.426c-0.072,0.023 -0.146,0.039 -0.221,0.048c0.006,1.267 0.021,3.036 0.056,4.364c0,0.992 0.639,1.871 1.582,2.178c0.863,0.294 1.674,0.784 2.362,1.472c2.402,2.403 2.402,6.303 0,8.706c-0.843,0.843 -2.492,2.491 -3.501,3.5c-0.47,0.471 -1.234,0.471 -1.704,0c-1.036,-1.035 -2.738,-2.738 -3.501,-3.5c-2.402,-2.403 -2.402,-6.303 0,-8.706c0.688,-0.688 1.499,-1.178 2.38,-1.415c0.969,-0.315 1.624,-1.217 1.625,-2.235c0,0 0,-2.715 -0.005,-4.349c-0.072,-0.008 -0.143,-0.018 -0.213,-0.032c-0.492,-0.093 -0.998,0.064 -1.353,0.418c-1.801,1.772 -6.588,6.557 -6.588,6.557c-1.326,1.325 -1.647,3.353 -0.795,5.023c0.84,1.456 1.256,3.15 1.256,4.94c0,6.254 -5.08,11.332 -11.337,11.332l-9.117,0c-1.226,0 -2.22,-0.993 -2.22,-2.219c0,-2.626 0,-6.918 0,-9.113c0,-6.254 5.08,-11.331 11.337,-11.331c1.791,0 3.486,0.416 4.993,1.157c1.628,0.829 3.604,0.516 4.896,-0.775c2.124,-2.015 5.034,-4.889 6.649,-6.493c0.36,-0.359 0.52,-0.872 0.426,-1.372c-0.023,-0.072 -0.039,-0.146 -0.048,-0.221c-1.267,0.006 -3.036,0.021 -4.364,0.056c-0.992,0 -1.871,0.639 -2.178,1.582c-0.294,0.863 -0.784,1.674 -1.472,2.362c-2.403,2.402 -6.303,2.402 -8.706,0c-0.843,-0.843 -2.491,-2.492 -3.5,-3.501c-0.471,-0.47 -0.471,-1.234 0,-1.704c1.035,-1.036 2.738,-2.738 3.5,-3.501c2.403,-2.402 6.303,-2.402 8.706,0c0.688,0.688 1.178,1.499 1.415,2.38c0.315,0.969 1.217,1.624 2.235,1.625c0,0 2.715,0 4.349,-0.005ZM18.551,50.108c0,3.98 -3.232,7.211 -7.214,7.211c-1.35,0 -4.187,0 -5.873,0c-0.741,0 -1.341,-0.6 -1.341,-1.34c0,-1.685 0,-4.521 0,-5.871c0,-3.979 3.232,-7.211 7.214,-7.211c3.982,0 7.214,3.232 7.214,7.211ZM50.108,42.889c3.98,0 7.211,3.232 7.211,7.214c0,1.35 0,4.187 0,5.873c0,0.741 -0.6,1.341 -1.34,1.341c-1.685,0 -4.521,0 -5.871,0c-3.979,0 -7.211,-3.232 -7.211,-7.214c0,-3.982 3.232,-7.214 7.211,-7.214ZM27.95,42.784c-1.529,1.529 -1.529,4.011 0,5.54c0.518,0.518 1.608,1.607 2.255,2.255c0.284,0.284 0.746,0.284 1.03,0c0.647,-0.648 1.737,-1.737 2.255,-2.255c1.529,-1.529 1.529,-4.011 0,-5.54c-1.529,-1.529 -4.011,-1.529 -5.54,0ZM42.784,33.49c1.529,1.529 4.011,1.529 5.54,0c0.518,-0.518 1.607,-1.608 2.255,-2.255c0.284,-0.284 0.284,-0.746 0,-1.03c-0.648,-0.647 -1.737,-1.737 -2.255,-2.255c-1.529,-1.529 -4.011,-1.529 -5.54,0c-1.529,1.529 -1.529,4.011 0,5.54ZM18.656,27.95c-1.529,-1.529 -4.011,-1.529 -5.54,0c-0.518,0.518 -1.607,1.608 -2.255,2.255c-0.284,0.284 -0.284,0.746 0,1.03c0.648,0.647 1.737,1.737 2.255,2.255c1.529,1.529 4.011,1.529 5.54,0c1.529,-1.529 1.529,-4.011 0,-5.54ZM33.49,18.656c1.529,-1.529 1.529,-4.011 0,-5.54c-0.518,-0.518 -1.608,-1.607 -2.255,-2.255c-0.284,-0.284 -0.746,-0.284 -1.03,0c-0.647,0.648 -1.737,1.737 -2.255,2.255c-1.529,1.529 -1.529,4.011 0,5.54c1.529,1.529 4.011,1.529 5.54,0ZM11.332,18.551c-3.98,0 -7.211,-3.232 -7.211,-7.214c0,-1.35 0,-4.187 0,-5.873c0,-0.741 0.6,-1.341 1.34,-1.341c1.685,0 4.521,0 5.871,0c3.979,0 7.211,3.232 7.211,7.214c0,3.982 -3.232,7.214 -7.211,7.214ZM42.889,11.332c0,-3.98 3.232,-7.211 7.214,-7.211c1.35,0 4.187,0 5.873,0c0.741,0 1.341,0.6 1.341,1.34c0,1.685 0,4.521 0,5.871c0,3.979 -3.232,7.211 -7.214,7.211c-3.982,0 -7.214,-3.232 -7.214,-7.211Z" style="fill:#00cba0;"/></svg>